<?xml version="1.0" standalone="no"?>
<!DOCTYPE svg PUBLIC "-//W3C//DTD SVG 20010904//EN"
 "http://www.w3.org/TR/2001/REC-SVG-20010904/DTD/svg10.dtd">
<svg version="1.0" xmlns="http://www.w3.org/2000/svg"
 width="201.000000pt" height="201.000000pt" viewBox="0 0 201.000000 201.000000"
 preserveAspectRatio="xMidYMid meet">
<metadata>
Created by potrace 1.14, written by Peter Selinger 2001-2017
</metadata>
<g transform="translate(0.000000,201.000000) scale(0.100000,-0.100000)"
fill="#000000" stroke="none">
<path d="M598 1198 c-3 -489 -4 -504 -24 -549 -31 -67 -79 -100 -156 -106 -72
-6 -116 8 -169 55 l-34 30 -87 -62 c-48 -33 -88 -64 -88 -68 0 -14 54 -70 96
-99 126 -86 324 -101 471 -34 62 28 133 96 164 157 51 99 52 109 56 661 l5
517 -116 0 -115 0 -3 -502z"/>
<path d="M1380 1306 c-141 -40 -228 -128 -266 -270 -17 -63 -19 -342 -3 -418
35 -163 145 -262 322 -290 89 -13 200 -1 273 31 104 47 182 157 203 291 13 81
14 253 1 342 -24 168 -129 283 -288 317 -68 14 -184 13 -242 -3z m233 -233
c64 -40 77 -83 77 -252 0 -127 -3 -150 -21 -188 -30 -63 -70 -87 -149 -91 -81
-4 -122 15 -165 76 l-30 44 0 156 c0 146 2 160 23 198 52 90 173 116 265 57z"/>
</g>
</svg>
